<svg width="18" height="18" viewBox="0 0 18 18" fill="#979797" xmlns="http://www.w3.org/2000/svg">
<path fill-rule="evenodd" clip-rule="evenodd" d="M8.57261 1.94874C4.91361 1.94874 1.94868 4.91132 1.94868 8.56429C1.94868 12.2173 4.91361 15.1798 8.57261 15.1798C10.3981 15.1798 12.0499 14.4432 13.2486 13.25C14.4527 12.0514 15.1965 10.3952 15.1965 8.56429C15.1965 4.91132 12.2316 1.94874 8.57261 1.94874ZM0.666626 8.56429C0.666626 4.20186 4.20695 0.666687 8.57261 0.666687C12.9383 0.666687 16.4786 4.20186 16.4786 8.56429C16.4786 10.5188 15.7672 12.3081 14.5902 13.6867L17.1453 16.2388C17.3958 16.489 17.396 16.8949 17.1458 17.1453C16.8956 17.3958 16.4897 17.3961 16.2393 17.1459L13.6818 14.5914C12.3042 15.7577 10.5202 16.4619 8.57261 16.4619C4.20695 16.4619 0.666626 12.9267 0.666626 8.56429Z"/>
</svg>
